# xmcd
#
# Track frame offsets:
#	150
#	9361
#	19810
#	30071
#	43257
#	53313
#	64764
#	73526
#	84952
#	98660
#	110163
#	120406
#
# Disc length: 1766 seconds
#
# Revision: 1
# Processed by: cddbd v1.5.2PL0 Copyright (c) Steve Scherf et al.
# Submitted via: audiograbber 1.83.01
#
DISCID=8506e40c
DTITLE=Norma Jean - Norma Jean Sings Porter Wagoner
DYEAR=1900
DGENRE=Country
TTITLE0=Dooley
TTITLE1=Eat, Drink and Be Merry (For Tomorrow You'll Cry)
TTITLE2=Country Music Has Gone To Town
TTITLE3=Misery Loves Company
TTITLE4=Company's Comin'
TTITLE5=I've Enjoyed As Much Of This As I Can Stand
TTITLE6=Howdy, Neighbor, Howdy
TTITLE7=I Just Came To Smell The Flowers
TTITLE8=A Satisfied Mind
TTITLE9=If Jesus Came To Your House
TTITLE10=Your Old Love Letters
TTITLE11=I Thought I Heard You Calling My Name
EXTD=Pretty Miss Norma Jean
EXTT0=
EXTT1=
EXTT2=
EXTT3=
EXTT4=
EXTT5=
EXTT6=
EXTT7=
EXTT8=
EXTT9=
EXTT10=
EXTT11=
PLAYORDER=
